<?xml version="1.0" encoding="UTF-8"?>
<svg id="Layer_1" data-name="Layer 1" xmlns="http://www.w3.org/2000/svg" viewBox="0 0 170.08 170.08">
  <defs>
    <style>
      .cls-1 {
        fill: #478fcc;
        stroke-width: 0px;
      }
    </style>
  </defs>
  <path class="cls-1" d="M85.04,0C38.07,0,0,38.07,0,85.04s38.07,85.04,85.04,85.04,85.04-38.07,85.04-85.04S132.01,0,85.04,0ZM85.04,164.31c-16.64,0-32.07-5.14-44.82-13.89,4.07-3.59,14.26-13.33,27.01-31.09,11.99-16.71,13.1-33.08,13.1-33.08-7.45-5.01-12.46-13.33-13.01-22.84,0,0-15.08,1.45-30.14,9.84-14.55,8.1-26.22,25.96-29.13,30.67-1.48-6.05-2.28-12.36-2.28-18.87,0-23.41,10.15-44.44,26.29-58.95,4.08.18,15.39,1.08,23.82,5.74,9.99,5.52,16.67,12.92,16.67,12.92,5.35-7.67,14.23-12.7,24.29-12.7,2.41,0,4.73.32,6.97.86,0,0-.85-5.53.15-11.55.67-4,3.06-9.65,4.19-12.17,24.77,7.54,44.39,26.88,52.32,51.47-4.26-1.56-14.36-4.99-21.56-5.24-6.46-.22-12.99.78-12.99.78.33,1.77.52,3.59.52,5.45,0,8.05-3.23,15.35-8.44,20.69,0,0,8.5,6.71,16.46,20.28,8.32,14.19,10.91,27.78,11.64,32.95-14.54,17.55-36.49,28.73-61.06,28.73Z"/>
</svg>